%TF.GenerationSoftware,KiCad,Pcbnew,6.0.7-f9a2dced07~116~ubuntu20.04.1*%
%TF.CreationDate,2022-08-02T13:01:24+09:00*%
%TF.ProjectId,M304,4d333034-2e6b-4696-9361-645f70636258,rev?*%
%TF.SameCoordinates,Original*%
%TF.FileFunction,Legend,Bot*%
%TF.FilePolarity,Positive*%
%FSLAX46Y46*%
G04 Gerber Fmt 4.6, Leading zero omitted, Abs format (unit mm)*
G04 Created by KiCad (PCBNEW 6.0.7-f9a2dced07~116~ubuntu20.04.1) date 2022-08-02 13:01:24*
%MOMM*%
%LPD*%
G01*
G04 APERTURE LIST*
%ADD10C,0.150000*%
%ADD11C,0.300000*%
%ADD12C,0.200000*%
%ADD13C,0.250000*%
%ADD14C,0.120000*%
G04 APERTURE END LIST*
D10*
X181450952Y-181605180D02*
X181784285Y-181128990D01*
X182022380Y-181605180D02*
X182022380Y-180605180D01*
X181641428Y-180605180D01*
X181546190Y-180652800D01*
X181498571Y-180700419D01*
X181450952Y-180795657D01*
X181450952Y-180938514D01*
X181498571Y-181033752D01*
X181546190Y-181081371D01*
X181641428Y-181128990D01*
X182022380Y-181128990D01*
X180546190Y-181605180D02*
X181022380Y-181605180D01*
X181022380Y-180605180D01*
X180022380Y-181128990D02*
X180022380Y-181605180D01*
X180355714Y-180605180D02*
X180022380Y-181128990D01*
X179689047Y-180605180D01*
X178403333Y-180605180D02*
X178212857Y-180605180D01*
X178117619Y-180652800D01*
X178022380Y-180748038D01*
X177974761Y-180938514D01*
X177974761Y-181271847D01*
X178022380Y-181462323D01*
X178117619Y-181557561D01*
X178212857Y-181605180D01*
X178403333Y-181605180D01*
X178498571Y-181557561D01*
X178593809Y-181462323D01*
X178641428Y-181271847D01*
X178641428Y-180938514D01*
X178593809Y-180748038D01*
X178498571Y-180652800D01*
X178403333Y-180605180D01*
X177546190Y-181605180D02*
X177546190Y-180605180D01*
X177165238Y-180605180D01*
X177070000Y-180652800D01*
X177022380Y-180700419D01*
X176974761Y-180795657D01*
X176974761Y-180938514D01*
X177022380Y-181033752D01*
X177070000Y-181081371D01*
X177165238Y-181128990D01*
X177546190Y-181128990D01*
X176546190Y-181081371D02*
X176212857Y-181081371D01*
X176070000Y-181605180D02*
X176546190Y-181605180D01*
X176546190Y-180605180D01*
X176070000Y-180605180D01*
D11*
X189825000Y-183130000D02*
X189110714Y-183130000D01*
X189967857Y-183558571D02*
X189467857Y-182058571D01*
X188967857Y-183558571D01*
X188467857Y-182058571D02*
X188467857Y-183272857D01*
X188396428Y-183415714D01*
X188325000Y-183487142D01*
X188182142Y-183558571D01*
X187896428Y-183558571D01*
X187753571Y-183487142D01*
X187682142Y-183415714D01*
X187610714Y-183272857D01*
X187610714Y-182058571D01*
X187110714Y-182058571D02*
X186253571Y-182058571D01*
X186682142Y-183558571D02*
X186682142Y-182058571D01*
X185467857Y-182058571D02*
X185182142Y-182058571D01*
X185039285Y-182130000D01*
X184896428Y-182272857D01*
X184825000Y-182558571D01*
X184825000Y-183058571D01*
X184896428Y-183344285D01*
X185039285Y-183487142D01*
X185182142Y-183558571D01*
X185467857Y-183558571D01*
X185610714Y-183487142D01*
X185753571Y-183344285D01*
X185825000Y-183058571D01*
X185825000Y-182558571D01*
X185753571Y-182272857D01*
X185610714Y-182130000D01*
X185467857Y-182058571D01*
X192559285Y-189273571D02*
X192559285Y-187773571D01*
X192059285Y-188845000D01*
X191559285Y-187773571D01*
X191559285Y-189273571D01*
X190916428Y-188845000D02*
X190202142Y-188845000D01*
X191059285Y-189273571D02*
X190559285Y-187773571D01*
X190059285Y-189273571D01*
X189559285Y-189273571D02*
X189559285Y-187773571D01*
X188702142Y-189273571D01*
X188702142Y-187773571D01*
X187987857Y-187773571D02*
X187987857Y-188987857D01*
X187916428Y-189130714D01*
X187845000Y-189202142D01*
X187702142Y-189273571D01*
X187416428Y-189273571D01*
X187273571Y-189202142D01*
X187202142Y-189130714D01*
X187130714Y-188987857D01*
X187130714Y-187773571D01*
X186487857Y-188845000D02*
X185773571Y-188845000D01*
X186630714Y-189273571D02*
X186130714Y-187773571D01*
X185630714Y-189273571D01*
X184416428Y-189273571D02*
X185130714Y-189273571D01*
X185130714Y-187773571D01*
D12*
X175017857Y-169588571D02*
X175017857Y-168088571D01*
X174160714Y-169588571D02*
X174803571Y-168731428D01*
X174160714Y-168088571D02*
X175017857Y-168945714D01*
D13*
X241867142Y-69107857D02*
X241367142Y-69107857D01*
X241152857Y-69893571D02*
X241867142Y-69893571D01*
X241867142Y-68393571D01*
X241152857Y-68393571D01*
X240510000Y-69893571D02*
X240510000Y-68393571D01*
X239652857Y-69893571D01*
X239652857Y-68393571D01*
X239152857Y-68393571D02*
X238295714Y-68393571D01*
X238724285Y-69893571D02*
X238724285Y-68393571D01*
X237795714Y-69107857D02*
X237295714Y-69107857D01*
X237081428Y-69893571D02*
X237795714Y-69893571D01*
X237795714Y-68393571D01*
X237081428Y-68393571D01*
X235581428Y-69893571D02*
X236081428Y-69179285D01*
X236438571Y-69893571D02*
X236438571Y-68393571D01*
X235867142Y-68393571D01*
X235724285Y-68465000D01*
X235652857Y-68536428D01*
X235581428Y-68679285D01*
X235581428Y-68893571D01*
X235652857Y-69036428D01*
X235724285Y-69107857D01*
X235867142Y-69179285D01*
X236438571Y-69179285D01*
D11*
X180380000Y-167255000D02*
X181094285Y-167255000D01*
X180237142Y-167683571D02*
X180737142Y-166183571D01*
X181237142Y-167683571D01*
X181737142Y-166183571D02*
X181737142Y-167397857D01*
X181808571Y-167540714D01*
X181880000Y-167612142D01*
X182022857Y-167683571D01*
X182308571Y-167683571D01*
X182451428Y-167612142D01*
X182522857Y-167540714D01*
X182594285Y-167397857D01*
X182594285Y-166183571D01*
X183094285Y-166183571D02*
X183951428Y-166183571D01*
X183522857Y-167683571D02*
X183522857Y-166183571D01*
X184737142Y-166183571D02*
X185022857Y-166183571D01*
X185165714Y-166255000D01*
X185308571Y-166397857D01*
X185380000Y-166683571D01*
X185380000Y-167183571D01*
X185308571Y-167469285D01*
X185165714Y-167612142D01*
X185022857Y-167683571D01*
X184737142Y-167683571D01*
X184594285Y-167612142D01*
X184451428Y-167469285D01*
X184380000Y-167183571D01*
X184380000Y-166683571D01*
X184451428Y-166397857D01*
X184594285Y-166255000D01*
X184737142Y-166183571D01*
D12*
X158507857Y-181653571D02*
X158507857Y-180153571D01*
X157650714Y-181653571D02*
X158293571Y-180796428D01*
X157650714Y-180153571D02*
X158507857Y-181010714D01*
D11*
X188114285Y-175938571D02*
X188114285Y-174438571D01*
X187614285Y-175510000D01*
X187114285Y-174438571D01*
X187114285Y-175938571D01*
X186471428Y-175510000D02*
X185757142Y-175510000D01*
X186614285Y-175938571D02*
X186114285Y-174438571D01*
X185614285Y-175938571D01*
X185114285Y-175938571D02*
X185114285Y-174438571D01*
X184257142Y-175938571D01*
X184257142Y-174438571D01*
X183542857Y-174438571D02*
X183542857Y-175652857D01*
X183471428Y-175795714D01*
X183400000Y-175867142D01*
X183257142Y-175938571D01*
X182971428Y-175938571D01*
X182828571Y-175867142D01*
X182757142Y-175795714D01*
X182685714Y-175652857D01*
X182685714Y-174438571D01*
X182042857Y-175510000D02*
X181328571Y-175510000D01*
X182185714Y-175938571D02*
X181685714Y-174438571D01*
X181185714Y-175938571D01*
X179971428Y-175938571D02*
X180685714Y-175938571D01*
X180685714Y-174438571D01*
X229901428Y-139108571D02*
X229901428Y-137608571D01*
X229401428Y-138680000D01*
X228901428Y-137608571D01*
X228901428Y-139108571D01*
X228258571Y-138680000D02*
X227544285Y-138680000D01*
X228401428Y-139108571D02*
X227901428Y-137608571D01*
X227401428Y-139108571D01*
X226901428Y-139108571D02*
X226901428Y-137608571D01*
X226044285Y-139108571D02*
X226687142Y-138251428D01*
X226044285Y-137608571D02*
X226901428Y-138465714D01*
X225401428Y-138322857D02*
X224901428Y-138322857D01*
X224687142Y-139108571D02*
X225401428Y-139108571D01*
X225401428Y-137608571D01*
X224687142Y-137608571D01*
D12*
X175017857Y-177843571D02*
X175017857Y-176343571D01*
X174160714Y-177843571D02*
X174803571Y-176986428D01*
X174160714Y-176343571D02*
X175017857Y-177200714D01*
D11*
X243629000Y-102207142D02*
X243414714Y-102278571D01*
X243057571Y-102278571D01*
X242914714Y-102207142D01*
X242843285Y-102135714D01*
X242771857Y-101992857D01*
X242771857Y-101850000D01*
X242843285Y-101707142D01*
X242914714Y-101635714D01*
X243057571Y-101564285D01*
X243343285Y-101492857D01*
X243486142Y-101421428D01*
X243557571Y-101350000D01*
X243629000Y-101207142D01*
X243629000Y-101064285D01*
X243557571Y-100921428D01*
X243486142Y-100850000D01*
X243343285Y-100778571D01*
X242986142Y-100778571D01*
X242771857Y-100850000D01*
X242129000Y-101492857D02*
X241629000Y-101492857D01*
X241414714Y-102278571D02*
X242129000Y-102278571D01*
X242129000Y-100778571D01*
X241414714Y-100778571D01*
X240057571Y-102278571D02*
X240771857Y-102278571D01*
X240771857Y-100778571D01*
X239557571Y-101492857D02*
X239057571Y-101492857D01*
X238843285Y-102278571D02*
X239557571Y-102278571D01*
X239557571Y-100778571D01*
X238843285Y-100778571D01*
X237343285Y-102135714D02*
X237414714Y-102207142D01*
X237629000Y-102278571D01*
X237771857Y-102278571D01*
X237986142Y-102207142D01*
X238129000Y-102064285D01*
X238200428Y-101921428D01*
X238271857Y-101635714D01*
X238271857Y-101421428D01*
X238200428Y-101135714D01*
X238129000Y-100992857D01*
X237986142Y-100850000D01*
X237771857Y-100778571D01*
X237629000Y-100778571D01*
X237414714Y-100850000D01*
X237343285Y-100921428D01*
X236914714Y-100778571D02*
X236057571Y-100778571D01*
X236486142Y-102278571D02*
X236486142Y-100778571D01*
X235271857Y-100778571D02*
X234986142Y-100778571D01*
X234843285Y-100850000D01*
X234700428Y-100992857D01*
X234629000Y-101278571D01*
X234629000Y-101778571D01*
X234700428Y-102064285D01*
X234843285Y-102207142D01*
X234986142Y-102278571D01*
X235271857Y-102278571D01*
X235414714Y-102207142D01*
X235557571Y-102064285D01*
X235629000Y-101778571D01*
X235629000Y-101278571D01*
X235557571Y-100992857D01*
X235414714Y-100850000D01*
X235271857Y-100778571D01*
X233129000Y-102278571D02*
X233629000Y-101564285D01*
X233986142Y-102278571D02*
X233986142Y-100778571D01*
X233414714Y-100778571D01*
X233271857Y-100850000D01*
X233200428Y-100921428D01*
X233129000Y-101064285D01*
X233129000Y-101278571D01*
X233200428Y-101421428D01*
X233271857Y-101492857D01*
X233414714Y-101564285D01*
X233986142Y-101564285D01*
X238299285Y-138322857D02*
X238085000Y-138394285D01*
X238013571Y-138465714D01*
X237942142Y-138608571D01*
X237942142Y-138822857D01*
X238013571Y-138965714D01*
X238085000Y-139037142D01*
X238227857Y-139108571D01*
X238799285Y-139108571D01*
X238799285Y-137608571D01*
X238299285Y-137608571D01*
X238156428Y-137680000D01*
X238085000Y-137751428D01*
X238013571Y-137894285D01*
X238013571Y-138037142D01*
X238085000Y-138180000D01*
X238156428Y-138251428D01*
X238299285Y-138322857D01*
X238799285Y-138322857D01*
X236442142Y-139108571D02*
X236942142Y-138394285D01*
X237299285Y-139108571D02*
X237299285Y-137608571D01*
X236727857Y-137608571D01*
X236585000Y-137680000D01*
X236513571Y-137751428D01*
X236442142Y-137894285D01*
X236442142Y-138108571D01*
X236513571Y-138251428D01*
X236585000Y-138322857D01*
X236727857Y-138394285D01*
X237299285Y-138394285D01*
X235799285Y-138322857D02*
X235299285Y-138322857D01*
X235085000Y-139108571D02*
X235799285Y-139108571D01*
X235799285Y-137608571D01*
X235085000Y-137608571D01*
X234513571Y-138680000D02*
X233799285Y-138680000D01*
X234656428Y-139108571D02*
X234156428Y-137608571D01*
X233656428Y-139108571D01*
X233156428Y-139108571D02*
X233156428Y-137608571D01*
X232299285Y-139108571D02*
X232942142Y-138251428D01*
X232299285Y-137608571D02*
X233156428Y-138465714D01*
D10*
%TO.C,SW6*%
X242180619Y-62507761D02*
X242037761Y-62555380D01*
X241799666Y-62555380D01*
X241704428Y-62507761D01*
X241656809Y-62460142D01*
X241609190Y-62364904D01*
X241609190Y-62269666D01*
X241656809Y-62174428D01*
X241704428Y-62126809D01*
X241799666Y-62079190D01*
X241990142Y-62031571D01*
X242085380Y-61983952D01*
X242133000Y-61936333D01*
X242180619Y-61841095D01*
X242180619Y-61745857D01*
X242133000Y-61650619D01*
X242085380Y-61603000D01*
X241990142Y-61555380D01*
X241752047Y-61555380D01*
X241609190Y-61603000D01*
X241275857Y-61555380D02*
X241037761Y-62555380D01*
X240847285Y-61841095D01*
X240656809Y-62555380D01*
X240418714Y-61555380D01*
X240275857Y-62650619D02*
X239513952Y-62650619D01*
X239275857Y-62031571D02*
X238942523Y-62031571D01*
X238799666Y-62555380D02*
X239275857Y-62555380D01*
X239275857Y-61555380D01*
X238799666Y-61555380D01*
X238371095Y-62555380D02*
X238371095Y-61555380D01*
X237799666Y-62555380D01*
X237799666Y-61555380D01*
X237466333Y-61555380D02*
X236894904Y-61555380D01*
X237180619Y-62555380D02*
X237180619Y-61555380D01*
X236561571Y-62031571D02*
X236228238Y-62031571D01*
X236085380Y-62555380D02*
X236561571Y-62555380D01*
X236561571Y-61555380D01*
X236085380Y-61555380D01*
X235085380Y-62555380D02*
X235418714Y-62079190D01*
X235656809Y-62555380D02*
X235656809Y-61555380D01*
X235275857Y-61555380D01*
X235180619Y-61603000D01*
X235133000Y-61650619D01*
X235085380Y-61745857D01*
X235085380Y-61888714D01*
X235133000Y-61983952D01*
X235180619Y-62031571D01*
X235275857Y-62079190D01*
X235656809Y-62079190D01*
%TO.C,SW2-7*%
X234838571Y-183284761D02*
X234695714Y-183332380D01*
X234457619Y-183332380D01*
X234362380Y-183284761D01*
X234314761Y-183237142D01*
X234267142Y-183141904D01*
X234267142Y-183046666D01*
X234314761Y-182951428D01*
X234362380Y-182903809D01*
X234457619Y-182856190D01*
X234648095Y-182808571D01*
X234743333Y-182760952D01*
X234790952Y-182713333D01*
X234838571Y-182618095D01*
X234838571Y-182522857D01*
X234790952Y-182427619D01*
X234743333Y-182380000D01*
X234648095Y-182332380D01*
X234410000Y-182332380D01*
X234267142Y-182380000D01*
X233933809Y-182332380D02*
X233695714Y-183332380D01*
X233505238Y-182618095D01*
X233314761Y-183332380D01*
X233076666Y-182332380D01*
X232743333Y-182427619D02*
X232695714Y-182380000D01*
X232600476Y-182332380D01*
X232362380Y-182332380D01*
X232267142Y-182380000D01*
X232219523Y-182427619D01*
X232171904Y-182522857D01*
X232171904Y-182618095D01*
X232219523Y-182760952D01*
X232790952Y-183332380D01*
X232171904Y-183332380D01*
X231743333Y-182951428D02*
X230981428Y-182951428D01*
X230600476Y-182332380D02*
X229933809Y-182332380D01*
X230362380Y-183332380D01*
%TO.C,D2*%
X176242380Y-99433095D02*
X175242380Y-99433095D01*
X176242380Y-100004523D02*
X175670952Y-99575952D01*
X175242380Y-100004523D02*
X175813809Y-99433095D01*
%TO.C,SW2*%
X240426666Y-52347761D02*
X240283809Y-52395380D01*
X240045714Y-52395380D01*
X239950476Y-52347761D01*
X239902857Y-52300142D01*
X239855238Y-52204904D01*
X239855238Y-52109666D01*
X239902857Y-52014428D01*
X239950476Y-51966809D01*
X240045714Y-51919190D01*
X240236190Y-51871571D01*
X240331428Y-51823952D01*
X240379047Y-51776333D01*
X240426666Y-51681095D01*
X240426666Y-51585857D01*
X240379047Y-51490619D01*
X240331428Y-51443000D01*
X240236190Y-51395380D01*
X239998095Y-51395380D01*
X239855238Y-51443000D01*
X239521904Y-51395380D02*
X239283809Y-52395380D01*
X239093333Y-51681095D01*
X238902857Y-52395380D01*
X238664761Y-51395380D01*
X238521904Y-52490619D02*
X237760000Y-52490619D01*
X237569523Y-52109666D02*
X237093333Y-52109666D01*
X237664761Y-52395380D02*
X237331428Y-51395380D01*
X236998095Y-52395380D01*
%TO.C,BT1*%
X98933047Y-65203428D02*
X99694952Y-65203428D01*
X95533047Y-67203428D02*
X96294952Y-67203428D01*
X95914000Y-67584380D02*
X95914000Y-66822476D01*
X102133047Y-67203428D02*
X102894952Y-67203428D01*
X102514000Y-67584380D02*
X102514000Y-66822476D01*
%TO.C,SW5*%
X250658095Y-62634761D02*
X250515238Y-62682380D01*
X250277142Y-62682380D01*
X250181904Y-62634761D01*
X250134285Y-62587142D01*
X250086666Y-62491904D01*
X250086666Y-62396666D01*
X250134285Y-62301428D01*
X250181904Y-62253809D01*
X250277142Y-62206190D01*
X250467619Y-62158571D01*
X250562857Y-62110952D01*
X250610476Y-62063333D01*
X250658095Y-61968095D01*
X250658095Y-61872857D01*
X250610476Y-61777619D01*
X250562857Y-61730000D01*
X250467619Y-61682380D01*
X250229523Y-61682380D01*
X250086666Y-61730000D01*
X249753333Y-61682380D02*
X249515238Y-62682380D01*
X249324761Y-61968095D01*
X249134285Y-62682380D01*
X248896190Y-61682380D01*
X248753333Y-62777619D02*
X247991428Y-62777619D01*
X247753333Y-62682380D02*
X247753333Y-61682380D01*
X247515238Y-61682380D01*
X247372380Y-61730000D01*
X247277142Y-61825238D01*
X247229523Y-61920476D01*
X247181904Y-62110952D01*
X247181904Y-62253809D01*
X247229523Y-62444285D01*
X247277142Y-62539523D01*
X247372380Y-62634761D01*
X247515238Y-62682380D01*
X247753333Y-62682380D01*
%TO.C,SW2-5*%
X234838571Y-170584761D02*
X234695714Y-170632380D01*
X234457619Y-170632380D01*
X234362380Y-170584761D01*
X234314761Y-170537142D01*
X234267142Y-170441904D01*
X234267142Y-170346666D01*
X234314761Y-170251428D01*
X234362380Y-170203809D01*
X234457619Y-170156190D01*
X234648095Y-170108571D01*
X234743333Y-170060952D01*
X234790952Y-170013333D01*
X234838571Y-169918095D01*
X234838571Y-169822857D01*
X234790952Y-169727619D01*
X234743333Y-169680000D01*
X234648095Y-169632380D01*
X234410000Y-169632380D01*
X234267142Y-169680000D01*
X233933809Y-169632380D02*
X233695714Y-170632380D01*
X233505238Y-169918095D01*
X233314761Y-170632380D01*
X233076666Y-169632380D01*
X232743333Y-169727619D02*
X232695714Y-169680000D01*
X232600476Y-169632380D01*
X232362380Y-169632380D01*
X232267142Y-169680000D01*
X232219523Y-169727619D01*
X232171904Y-169822857D01*
X232171904Y-169918095D01*
X232219523Y-170060952D01*
X232790952Y-170632380D01*
X232171904Y-170632380D01*
X231743333Y-170251428D02*
X230981428Y-170251428D01*
X230029047Y-169632380D02*
X230505238Y-169632380D01*
X230552857Y-170108571D01*
X230505238Y-170060952D01*
X230410000Y-170013333D01*
X230171904Y-170013333D01*
X230076666Y-170060952D01*
X230029047Y-170108571D01*
X229981428Y-170203809D01*
X229981428Y-170441904D01*
X230029047Y-170537142D01*
X230076666Y-170584761D01*
X230171904Y-170632380D01*
X230410000Y-170632380D01*
X230505238Y-170584761D01*
X230552857Y-170537142D01*
%TO.C,SW2-9*%
X180643000Y-187557533D02*
X180543000Y-187590866D01*
X180376333Y-187590866D01*
X180309666Y-187557533D01*
X180276333Y-187524200D01*
X180243000Y-187457533D01*
X180243000Y-187390866D01*
X180276333Y-187324200D01*
X180309666Y-187290866D01*
X180376333Y-187257533D01*
X180509666Y-187224200D01*
X180576333Y-187190866D01*
X180609666Y-187157533D01*
X180643000Y-187090866D01*
X180643000Y-187024200D01*
X180609666Y-186957533D01*
X180576333Y-186924200D01*
X180509666Y-186890866D01*
X180343000Y-186890866D01*
X180243000Y-186924200D01*
X180009666Y-186890866D02*
X179843000Y-187590866D01*
X179709666Y-187090866D01*
X179576333Y-187590866D01*
X179409666Y-186890866D01*
X179176333Y-186957533D02*
X179143000Y-186924200D01*
X179076333Y-186890866D01*
X178909666Y-186890866D01*
X178843000Y-186924200D01*
X178809666Y-186957533D01*
X178776333Y-187024200D01*
X178776333Y-187090866D01*
X178809666Y-187190866D01*
X179209666Y-187590866D01*
X178776333Y-187590866D01*
X178476333Y-187324200D02*
X177943000Y-187324200D01*
X177576333Y-187590866D02*
X177443000Y-187590866D01*
X177376333Y-187557533D01*
X177343000Y-187524200D01*
X177276333Y-187424200D01*
X177243000Y-187290866D01*
X177243000Y-187024200D01*
X177276333Y-186957533D01*
X177309666Y-186924200D01*
X177376333Y-186890866D01*
X177509666Y-186890866D01*
X177576333Y-186924200D01*
X177609666Y-186957533D01*
X177643000Y-187024200D01*
X177643000Y-187190866D01*
X177609666Y-187257533D01*
X177576333Y-187290866D01*
X177509666Y-187324200D01*
X177376333Y-187324200D01*
X177309666Y-187290866D01*
X177276333Y-187257533D01*
X177243000Y-187190866D01*
%TO.C,D1*%
X171711904Y-89457380D02*
X171711904Y-88457380D01*
X171140476Y-89457380D02*
X171569047Y-88885952D01*
X171140476Y-88457380D02*
X171711904Y-89028809D01*
%TO.C,SW2-6*%
X234838571Y-173124761D02*
X234695714Y-173172380D01*
X234457619Y-173172380D01*
X234362380Y-173124761D01*
X234314761Y-173077142D01*
X234267142Y-172981904D01*
X234267142Y-172886666D01*
X234314761Y-172791428D01*
X234362380Y-172743809D01*
X234457619Y-172696190D01*
X234648095Y-172648571D01*
X234743333Y-172600952D01*
X234790952Y-172553333D01*
X234838571Y-172458095D01*
X234838571Y-172362857D01*
X234790952Y-172267619D01*
X234743333Y-172220000D01*
X234648095Y-172172380D01*
X234410000Y-172172380D01*
X234267142Y-172220000D01*
X233933809Y-172172380D02*
X233695714Y-173172380D01*
X233505238Y-172458095D01*
X233314761Y-173172380D01*
X233076666Y-172172380D01*
X232743333Y-172267619D02*
X232695714Y-172220000D01*
X232600476Y-172172380D01*
X232362380Y-172172380D01*
X232267142Y-172220000D01*
X232219523Y-172267619D01*
X232171904Y-172362857D01*
X232171904Y-172458095D01*
X232219523Y-172600952D01*
X232790952Y-173172380D01*
X232171904Y-173172380D01*
X231743333Y-172791428D02*
X230981428Y-172791428D01*
X230076666Y-172172380D02*
X230267142Y-172172380D01*
X230362380Y-172220000D01*
X230410000Y-172267619D01*
X230505238Y-172410476D01*
X230552857Y-172600952D01*
X230552857Y-172981904D01*
X230505238Y-173077142D01*
X230457619Y-173124761D01*
X230362380Y-173172380D01*
X230171904Y-173172380D01*
X230076666Y-173124761D01*
X230029047Y-173077142D01*
X229981428Y-172981904D01*
X229981428Y-172743809D01*
X230029047Y-172648571D01*
X230076666Y-172600952D01*
X230171904Y-172553333D01*
X230362380Y-172553333D01*
X230457619Y-172600952D01*
X230505238Y-172648571D01*
X230552857Y-172743809D01*
%TO.C,D4*%
X110243904Y-86812380D02*
X110243904Y-85812380D01*
X109672476Y-86812380D02*
X110101047Y-86240952D01*
X109672476Y-85812380D02*
X110243904Y-86383809D01*
%TO.C,SW7*%
X166433333Y-188110761D02*
X166290476Y-188158380D01*
X166052380Y-188158380D01*
X165957142Y-188110761D01*
X165909523Y-188063142D01*
X165861904Y-187967904D01*
X165861904Y-187872666D01*
X165909523Y-187777428D01*
X165957142Y-187729809D01*
X166052380Y-187682190D01*
X166242857Y-187634571D01*
X166338095Y-187586952D01*
X166385714Y-187539333D01*
X166433333Y-187444095D01*
X166433333Y-187348857D01*
X166385714Y-187253619D01*
X166338095Y-187206000D01*
X166242857Y-187158380D01*
X166004761Y-187158380D01*
X165861904Y-187206000D01*
X165528571Y-187158380D02*
X165290476Y-188158380D01*
X165100000Y-187444095D01*
X164909523Y-188158380D01*
X164671428Y-187158380D01*
X164385714Y-187158380D02*
X163719047Y-187158380D01*
X164147619Y-188158380D01*
X168742857Y-181379761D02*
X168600000Y-181427380D01*
X168361904Y-181427380D01*
X168266666Y-181379761D01*
X168219047Y-181332142D01*
X168171428Y-181236904D01*
X168171428Y-181141666D01*
X168219047Y-181046428D01*
X168266666Y-180998809D01*
X168361904Y-180951190D01*
X168552380Y-180903571D01*
X168647619Y-180855952D01*
X168695238Y-180808333D01*
X168742857Y-180713095D01*
X168742857Y-180617857D01*
X168695238Y-180522619D01*
X168647619Y-180475000D01*
X168552380Y-180427380D01*
X168314285Y-180427380D01*
X168171428Y-180475000D01*
X167790476Y-181141666D02*
X167314285Y-181141666D01*
X167885714Y-181427380D02*
X167552380Y-180427380D01*
X167219047Y-181427380D01*
X166552380Y-180903571D02*
X166885714Y-180903571D01*
X166885714Y-181427380D02*
X166885714Y-180427380D01*
X166409523Y-180427380D01*
X166028571Y-180903571D02*
X165695238Y-180903571D01*
X165552380Y-181427380D02*
X166028571Y-181427380D01*
X166028571Y-180427380D01*
X165552380Y-180427380D01*
X165123809Y-181427380D02*
X165123809Y-180427380D01*
X164790476Y-181141666D01*
X164457142Y-180427380D01*
X164457142Y-181427380D01*
X163790476Y-180427380D02*
X163600000Y-180427380D01*
X163504761Y-180475000D01*
X163409523Y-180570238D01*
X163361904Y-180760714D01*
X163361904Y-181094047D01*
X163409523Y-181284523D01*
X163504761Y-181379761D01*
X163600000Y-181427380D01*
X163790476Y-181427380D01*
X163885714Y-181379761D01*
X163980952Y-181284523D01*
X164028571Y-181094047D01*
X164028571Y-180760714D01*
X163980952Y-180570238D01*
X163885714Y-180475000D01*
X163790476Y-180427380D01*
X162933333Y-181427380D02*
X162933333Y-180427380D01*
X162695238Y-180427380D01*
X162552380Y-180475000D01*
X162457142Y-180570238D01*
X162409523Y-180665476D01*
X162361904Y-180855952D01*
X162361904Y-180998809D01*
X162409523Y-181189285D01*
X162457142Y-181284523D01*
X162552380Y-181379761D01*
X162695238Y-181427380D01*
X162933333Y-181427380D01*
X161933333Y-180903571D02*
X161600000Y-180903571D01*
X161457142Y-181427380D02*
X161933333Y-181427380D01*
X161933333Y-180427380D01*
X161457142Y-180427380D01*
%TO.C,SW4*%
X230338095Y-62507761D02*
X230195238Y-62555380D01*
X229957142Y-62555380D01*
X229861904Y-62507761D01*
X229814285Y-62460142D01*
X229766666Y-62364904D01*
X229766666Y-62269666D01*
X229814285Y-62174428D01*
X229861904Y-62126809D01*
X229957142Y-62079190D01*
X230147619Y-62031571D01*
X230242857Y-61983952D01*
X230290476Y-61936333D01*
X230338095Y-61841095D01*
X230338095Y-61745857D01*
X230290476Y-61650619D01*
X230242857Y-61603000D01*
X230147619Y-61555380D01*
X229909523Y-61555380D01*
X229766666Y-61603000D01*
X229433333Y-61555380D02*
X229195238Y-62555380D01*
X229004761Y-61841095D01*
X228814285Y-62555380D01*
X228576190Y-61555380D01*
X228433333Y-62650619D02*
X227671428Y-62650619D01*
X226861904Y-62460142D02*
X226909523Y-62507761D01*
X227052380Y-62555380D01*
X227147619Y-62555380D01*
X227290476Y-62507761D01*
X227385714Y-62412523D01*
X227433333Y-62317285D01*
X227480952Y-62126809D01*
X227480952Y-61983952D01*
X227433333Y-61793476D01*
X227385714Y-61698238D01*
X227290476Y-61603000D01*
X227147619Y-61555380D01*
X227052380Y-61555380D01*
X226909523Y-61603000D01*
X226861904Y-61650619D01*
%TO.C,SW2-8*%
X234838571Y-185824761D02*
X234695714Y-185872380D01*
X234457619Y-185872380D01*
X234362380Y-185824761D01*
X234314761Y-185777142D01*
X234267142Y-185681904D01*
X234267142Y-185586666D01*
X234314761Y-185491428D01*
X234362380Y-185443809D01*
X234457619Y-185396190D01*
X234648095Y-185348571D01*
X234743333Y-185300952D01*
X234790952Y-185253333D01*
X234838571Y-185158095D01*
X234838571Y-185062857D01*
X234790952Y-184967619D01*
X234743333Y-184920000D01*
X234648095Y-184872380D01*
X234410000Y-184872380D01*
X234267142Y-184920000D01*
X233933809Y-184872380D02*
X233695714Y-185872380D01*
X233505238Y-185158095D01*
X233314761Y-185872380D01*
X233076666Y-184872380D01*
X232743333Y-184967619D02*
X232695714Y-184920000D01*
X232600476Y-184872380D01*
X232362380Y-184872380D01*
X232267142Y-184920000D01*
X232219523Y-184967619D01*
X232171904Y-185062857D01*
X232171904Y-185158095D01*
X232219523Y-185300952D01*
X232790952Y-185872380D01*
X232171904Y-185872380D01*
X231743333Y-185491428D02*
X230981428Y-185491428D01*
X230362380Y-185300952D02*
X230457619Y-185253333D01*
X230505238Y-185205714D01*
X230552857Y-185110476D01*
X230552857Y-185062857D01*
X230505238Y-184967619D01*
X230457619Y-184920000D01*
X230362380Y-184872380D01*
X230171904Y-184872380D01*
X230076666Y-184920000D01*
X230029047Y-184967619D01*
X229981428Y-185062857D01*
X229981428Y-185110476D01*
X230029047Y-185205714D01*
X230076666Y-185253333D01*
X230171904Y-185300952D01*
X230362380Y-185300952D01*
X230457619Y-185348571D01*
X230505238Y-185396190D01*
X230552857Y-185491428D01*
X230552857Y-185681904D01*
X230505238Y-185777142D01*
X230457619Y-185824761D01*
X230362380Y-185872380D01*
X230171904Y-185872380D01*
X230076666Y-185824761D01*
X230029047Y-185777142D01*
X229981428Y-185681904D01*
X229981428Y-185491428D01*
X230029047Y-185396190D01*
X230076666Y-185348571D01*
X230171904Y-185300952D01*
%TO.C,SW2-3*%
X234838571Y-154074761D02*
X234695714Y-154122380D01*
X234457619Y-154122380D01*
X234362380Y-154074761D01*
X234314761Y-154027142D01*
X234267142Y-153931904D01*
X234267142Y-153836666D01*
X234314761Y-153741428D01*
X234362380Y-153693809D01*
X234457619Y-153646190D01*
X234648095Y-153598571D01*
X234743333Y-153550952D01*
X234790952Y-153503333D01*
X234838571Y-153408095D01*
X234838571Y-153312857D01*
X234790952Y-153217619D01*
X234743333Y-153170000D01*
X234648095Y-153122380D01*
X234410000Y-153122380D01*
X234267142Y-153170000D01*
X233933809Y-153122380D02*
X233695714Y-154122380D01*
X233505238Y-153408095D01*
X233314761Y-154122380D01*
X233076666Y-153122380D01*
X232743333Y-153217619D02*
X232695714Y-153170000D01*
X232600476Y-153122380D01*
X232362380Y-153122380D01*
X232267142Y-153170000D01*
X232219523Y-153217619D01*
X232171904Y-153312857D01*
X232171904Y-153408095D01*
X232219523Y-153550952D01*
X232790952Y-154122380D01*
X232171904Y-154122380D01*
X231743333Y-153741428D02*
X230981428Y-153741428D01*
X230600476Y-153122380D02*
X229981428Y-153122380D01*
X230314761Y-153503333D01*
X230171904Y-153503333D01*
X230076666Y-153550952D01*
X230029047Y-153598571D01*
X229981428Y-153693809D01*
X229981428Y-153931904D01*
X230029047Y-154027142D01*
X230076666Y-154074761D01*
X230171904Y-154122380D01*
X230457619Y-154122380D01*
X230552857Y-154074761D01*
X230600476Y-154027142D01*
%TO.C,D3*%
X171457904Y-85139380D02*
X171457904Y-84139380D01*
X170886476Y-85139380D02*
X171315047Y-84567952D01*
X170886476Y-84139380D02*
X171457904Y-84710809D01*
%TO.C,SW2-1*%
X234838571Y-141374761D02*
X234695714Y-141422380D01*
X234457619Y-141422380D01*
X234362380Y-141374761D01*
X234314761Y-141327142D01*
X234267142Y-141231904D01*
X234267142Y-141136666D01*
X234314761Y-141041428D01*
X234362380Y-140993809D01*
X234457619Y-140946190D01*
X234648095Y-140898571D01*
X234743333Y-140850952D01*
X234790952Y-140803333D01*
X234838571Y-140708095D01*
X234838571Y-140612857D01*
X234790952Y-140517619D01*
X234743333Y-140470000D01*
X234648095Y-140422380D01*
X234410000Y-140422380D01*
X234267142Y-140470000D01*
X233933809Y-140422380D02*
X233695714Y-141422380D01*
X233505238Y-140708095D01*
X233314761Y-141422380D01*
X233076666Y-140422380D01*
X232743333Y-140517619D02*
X232695714Y-140470000D01*
X232600476Y-140422380D01*
X232362380Y-140422380D01*
X232267142Y-140470000D01*
X232219523Y-140517619D01*
X232171904Y-140612857D01*
X232171904Y-140708095D01*
X232219523Y-140850952D01*
X232790952Y-141422380D01*
X232171904Y-141422380D01*
X231743333Y-141041428D02*
X230981428Y-141041428D01*
X229981428Y-141422380D02*
X230552857Y-141422380D01*
X230267142Y-141422380D02*
X230267142Y-140422380D01*
X230362380Y-140565238D01*
X230457619Y-140660476D01*
X230552857Y-140708095D01*
%TO.C,D2-3*%
X186951904Y-143222380D02*
X186951904Y-142222380D01*
X186380476Y-143222380D02*
X186809047Y-142650952D01*
X186380476Y-142222380D02*
X186951904Y-142793809D01*
%TO.C,SW2-4*%
X234838571Y-160424761D02*
X234695714Y-160472380D01*
X234457619Y-160472380D01*
X234362380Y-160424761D01*
X234314761Y-160377142D01*
X234267142Y-160281904D01*
X234267142Y-160186666D01*
X234314761Y-160091428D01*
X234362380Y-160043809D01*
X234457619Y-159996190D01*
X234648095Y-159948571D01*
X234743333Y-159900952D01*
X234790952Y-159853333D01*
X234838571Y-159758095D01*
X234838571Y-159662857D01*
X234790952Y-159567619D01*
X234743333Y-159520000D01*
X234648095Y-159472380D01*
X234410000Y-159472380D01*
X234267142Y-159520000D01*
X233933809Y-159472380D02*
X233695714Y-160472380D01*
X233505238Y-159758095D01*
X233314761Y-160472380D01*
X233076666Y-159472380D01*
X232743333Y-159567619D02*
X232695714Y-159520000D01*
X232600476Y-159472380D01*
X232362380Y-159472380D01*
X232267142Y-159520000D01*
X232219523Y-159567619D01*
X232171904Y-159662857D01*
X232171904Y-159758095D01*
X232219523Y-159900952D01*
X232790952Y-160472380D01*
X232171904Y-160472380D01*
X231743333Y-160091428D02*
X230981428Y-160091428D01*
X230076666Y-159805714D02*
X230076666Y-160472380D01*
X230314761Y-159424761D02*
X230552857Y-160139047D01*
X229933809Y-160139047D01*
%TO.C,SW2-2*%
X234838571Y-147724761D02*
X234695714Y-147772380D01*
X234457619Y-147772380D01*
X234362380Y-147724761D01*
X234314761Y-147677142D01*
X234267142Y-147581904D01*
X234267142Y-147486666D01*
X234314761Y-147391428D01*
X234362380Y-147343809D01*
X234457619Y-147296190D01*
X234648095Y-147248571D01*
X234743333Y-147200952D01*
X234790952Y-147153333D01*
X234838571Y-147058095D01*
X234838571Y-146962857D01*
X234790952Y-146867619D01*
X234743333Y-146820000D01*
X234648095Y-146772380D01*
X234410000Y-146772380D01*
X234267142Y-146820000D01*
X233933809Y-146772380D02*
X233695714Y-147772380D01*
X233505238Y-147058095D01*
X233314761Y-147772380D01*
X233076666Y-146772380D01*
X232743333Y-146867619D02*
X232695714Y-146820000D01*
X232600476Y-146772380D01*
X232362380Y-146772380D01*
X232267142Y-146820000D01*
X232219523Y-146867619D01*
X232171904Y-146962857D01*
X232171904Y-147058095D01*
X232219523Y-147200952D01*
X232790952Y-147772380D01*
X232171904Y-147772380D01*
X231743333Y-147391428D02*
X230981428Y-147391428D01*
X230552857Y-146867619D02*
X230505238Y-146820000D01*
X230410000Y-146772380D01*
X230171904Y-146772380D01*
X230076666Y-146820000D01*
X230029047Y-146867619D01*
X229981428Y-146962857D01*
X229981428Y-147058095D01*
X230029047Y-147200952D01*
X230600476Y-147772380D01*
X229981428Y-147772380D01*
%TO.C,SW3*%
X240498095Y-72794761D02*
X240355238Y-72842380D01*
X240117142Y-72842380D01*
X240021904Y-72794761D01*
X239974285Y-72747142D01*
X239926666Y-72651904D01*
X239926666Y-72556666D01*
X239974285Y-72461428D01*
X240021904Y-72413809D01*
X240117142Y-72366190D01*
X240307619Y-72318571D01*
X240402857Y-72270952D01*
X240450476Y-72223333D01*
X240498095Y-72128095D01*
X240498095Y-72032857D01*
X240450476Y-71937619D01*
X240402857Y-71890000D01*
X240307619Y-71842380D01*
X240069523Y-71842380D01*
X239926666Y-71890000D01*
X239593333Y-71842380D02*
X239355238Y-72842380D01*
X239164761Y-72128095D01*
X238974285Y-72842380D01*
X238736190Y-71842380D01*
X238593333Y-72937619D02*
X237831428Y-72937619D01*
X237260000Y-72318571D02*
X237117142Y-72366190D01*
X237069523Y-72413809D01*
X237021904Y-72509047D01*
X237021904Y-72651904D01*
X237069523Y-72747142D01*
X237117142Y-72794761D01*
X237212380Y-72842380D01*
X237593333Y-72842380D01*
X237593333Y-71842380D01*
X237260000Y-71842380D01*
X237164761Y-71890000D01*
X237117142Y-71937619D01*
X237069523Y-72032857D01*
X237069523Y-72128095D01*
X237117142Y-72223333D01*
X237164761Y-72270952D01*
X237260000Y-72318571D01*
X237593333Y-72318571D01*
%TO.C,P1*%
X192254095Y-100020380D02*
X192254095Y-99020380D01*
X191873142Y-99020380D01*
X191777904Y-99068000D01*
X191730285Y-99115619D01*
X191682666Y-99210857D01*
X191682666Y-99353714D01*
X191730285Y-99448952D01*
X191777904Y-99496571D01*
X191873142Y-99544190D01*
X192254095Y-99544190D01*
X190730285Y-100020380D02*
X191301714Y-100020380D01*
X191016000Y-100020380D02*
X191016000Y-99020380D01*
X191111238Y-99163238D01*
X191206476Y-99258476D01*
X191301714Y-99306095D01*
%TO.C,P2*%
X145975295Y-111755180D02*
X145975295Y-110755180D01*
X145594342Y-110755180D01*
X145499104Y-110802800D01*
X145451485Y-110850419D01*
X145403866Y-110945657D01*
X145403866Y-111088514D01*
X145451485Y-111183752D01*
X145499104Y-111231371D01*
X145594342Y-111278990D01*
X145975295Y-111278990D01*
X145022914Y-110850419D02*
X144975295Y-110802800D01*
X144880057Y-110755180D01*
X144641961Y-110755180D01*
X144546723Y-110802800D01*
X144499104Y-110850419D01*
X144451485Y-110945657D01*
X144451485Y-111040895D01*
X144499104Y-111183752D01*
X145070533Y-111755180D01*
X144451485Y-111755180D01*
X142565190Y-111704380D02*
X142565190Y-110704380D01*
X142184238Y-110704380D01*
X142089000Y-110752000D01*
X142041380Y-110799619D01*
X141993761Y-110894857D01*
X141993761Y-111037714D01*
X142041380Y-111132952D01*
X142089000Y-111180571D01*
X142184238Y-111228190D01*
X142565190Y-111228190D01*
X141422333Y-111704380D02*
X141517571Y-111656761D01*
X141565190Y-111609142D01*
X141612809Y-111513904D01*
X141612809Y-111228190D01*
X141565190Y-111132952D01*
X141517571Y-111085333D01*
X141422333Y-111037714D01*
X141279476Y-111037714D01*
X141184238Y-111085333D01*
X141136619Y-111132952D01*
X141089000Y-111228190D01*
X141089000Y-111513904D01*
X141136619Y-111609142D01*
X141184238Y-111656761D01*
X141279476Y-111704380D01*
X141422333Y-111704380D01*
X140755666Y-111037714D02*
X140565190Y-111704380D01*
X140374714Y-111228190D01*
X140184238Y-111704380D01*
X139993761Y-111037714D01*
X139231857Y-111656761D02*
X139327095Y-111704380D01*
X139517571Y-111704380D01*
X139612809Y-111656761D01*
X139660428Y-111561523D01*
X139660428Y-111180571D01*
X139612809Y-111085333D01*
X139517571Y-111037714D01*
X139327095Y-111037714D01*
X139231857Y-111085333D01*
X139184238Y-111180571D01*
X139184238Y-111275809D01*
X139660428Y-111371047D01*
X138755666Y-111704380D02*
X138755666Y-111037714D01*
X138755666Y-111228190D02*
X138708047Y-111132952D01*
X138660428Y-111085333D01*
X138565190Y-111037714D01*
X138469952Y-111037714D01*
%TO.C,P3*%
X161774095Y-111704380D02*
X161774095Y-110704380D01*
X161393142Y-110704380D01*
X161297904Y-110752000D01*
X161250285Y-110799619D01*
X161202666Y-110894857D01*
X161202666Y-111037714D01*
X161250285Y-111132952D01*
X161297904Y-111180571D01*
X161393142Y-111228190D01*
X161774095Y-111228190D01*
X160869333Y-110704380D02*
X160250285Y-110704380D01*
X160583619Y-111085333D01*
X160440761Y-111085333D01*
X160345523Y-111132952D01*
X160297904Y-111180571D01*
X160250285Y-111275809D01*
X160250285Y-111513904D01*
X160297904Y-111609142D01*
X160345523Y-111656761D01*
X160440761Y-111704380D01*
X160726476Y-111704380D01*
X160821714Y-111656761D01*
X160869333Y-111609142D01*
%TO.C,P4*%
X188190095Y-111704380D02*
X188190095Y-110704380D01*
X187809142Y-110704380D01*
X187713904Y-110752000D01*
X187666285Y-110799619D01*
X187618666Y-110894857D01*
X187618666Y-111037714D01*
X187666285Y-111132952D01*
X187713904Y-111180571D01*
X187809142Y-111228190D01*
X188190095Y-111228190D01*
X186761523Y-111037714D02*
X186761523Y-111704380D01*
X186999619Y-110656761D02*
X187237714Y-111371047D01*
X186618666Y-111371047D01*
%TO.C,P5*%
X130913095Y-69032380D02*
X130913095Y-68032380D01*
X130532142Y-68032380D01*
X130436904Y-68080000D01*
X130389285Y-68127619D01*
X130341666Y-68222857D01*
X130341666Y-68365714D01*
X130389285Y-68460952D01*
X130436904Y-68508571D01*
X130532142Y-68556190D01*
X130913095Y-68556190D01*
X129436904Y-68032380D02*
X129913095Y-68032380D01*
X129960714Y-68508571D01*
X129913095Y-68460952D01*
X129817857Y-68413333D01*
X129579761Y-68413333D01*
X129484523Y-68460952D01*
X129436904Y-68508571D01*
X129389285Y-68603809D01*
X129389285Y-68841904D01*
X129436904Y-68937142D01*
X129484523Y-68984761D01*
X129579761Y-69032380D01*
X129817857Y-69032380D01*
X129913095Y-68984761D01*
X129960714Y-68937142D01*
%TO.C,P6*%
X158980095Y-68676780D02*
X158980095Y-67676780D01*
X158599142Y-67676780D01*
X158503904Y-67724400D01*
X158456285Y-67772019D01*
X158408666Y-67867257D01*
X158408666Y-68010114D01*
X158456285Y-68105352D01*
X158503904Y-68152971D01*
X158599142Y-68200590D01*
X158980095Y-68200590D01*
X157551523Y-67676780D02*
X157742000Y-67676780D01*
X157837238Y-67724400D01*
X157884857Y-67772019D01*
X157980095Y-67914876D01*
X158027714Y-68105352D01*
X158027714Y-68486304D01*
X157980095Y-68581542D01*
X157932476Y-68629161D01*
X157837238Y-68676780D01*
X157646761Y-68676780D01*
X157551523Y-68629161D01*
X157503904Y-68581542D01*
X157456285Y-68486304D01*
X157456285Y-68248209D01*
X157503904Y-68152971D01*
X157551523Y-68105352D01*
X157646761Y-68057733D01*
X157837238Y-68057733D01*
X157932476Y-68105352D01*
X157980095Y-68152971D01*
X158027714Y-68248209D01*
%TO.C,P7*%
X181789295Y-68981580D02*
X181789295Y-67981580D01*
X181408342Y-67981580D01*
X181313104Y-68029200D01*
X181265485Y-68076819D01*
X181217866Y-68172057D01*
X181217866Y-68314914D01*
X181265485Y-68410152D01*
X181313104Y-68457771D01*
X181408342Y-68505390D01*
X181789295Y-68505390D01*
X180884533Y-67981580D02*
X180217866Y-67981580D01*
X180646438Y-68981580D01*
D14*
%TO.C,P1*%
X193640000Y-108890000D02*
X193640000Y-110220000D01*
X198840000Y-110220000D02*
X198840000Y-64380000D01*
X193640000Y-110220000D02*
X194970000Y-110220000D01*
X193640000Y-107620000D02*
X193640000Y-64380000D01*
X193640000Y-107620000D02*
X196240000Y-107620000D01*
X196240000Y-107620000D02*
X196240000Y-110220000D01*
X193640000Y-64380000D02*
X198840000Y-64380000D01*
X196240000Y-110220000D02*
X198840000Y-110220000D01*
%TO.C,P2*%
X130200000Y-112640000D02*
X130200000Y-115300000D01*
X128930000Y-112640000D02*
X127600000Y-112640000D01*
X127600000Y-112640000D02*
X127600000Y-113970000D01*
X130200000Y-115300000D02*
X148040000Y-115300000D01*
X148040000Y-112640000D02*
X148040000Y-115300000D01*
X130200000Y-112640000D02*
X148040000Y-112640000D01*
%TO.C,P3*%
X153060000Y-112640000D02*
X170900000Y-112640000D01*
X153060000Y-115300000D02*
X170900000Y-115300000D01*
X150460000Y-112640000D02*
X150460000Y-113970000D01*
X151790000Y-112640000D02*
X150460000Y-112640000D01*
X170900000Y-112640000D02*
X170900000Y-115300000D01*
X153060000Y-112640000D02*
X153060000Y-115300000D01*
%TO.C,P4*%
X174650000Y-112640000D02*
X173320000Y-112640000D01*
X173320000Y-112640000D02*
X173320000Y-113970000D01*
X175920000Y-112640000D02*
X175920000Y-115300000D01*
X193760000Y-112640000D02*
X193760000Y-115300000D01*
X175920000Y-115300000D02*
X193760000Y-115300000D01*
X175920000Y-112640000D02*
X193760000Y-112640000D01*
%TO.C,P5*%
X121056000Y-64380000D02*
X121056000Y-67040000D01*
X143976000Y-64380000D02*
X143976000Y-67040000D01*
X118456000Y-64380000D02*
X118456000Y-65710000D01*
X121056000Y-67040000D02*
X143976000Y-67040000D01*
X119786000Y-64380000D02*
X118456000Y-64380000D01*
X121056000Y-64380000D02*
X143976000Y-64380000D01*
%TO.C,P6*%
X147980000Y-64380000D02*
X165820000Y-64380000D01*
X165820000Y-64380000D02*
X165820000Y-67040000D01*
X145380000Y-64380000D02*
X145380000Y-65710000D01*
X147980000Y-67040000D02*
X165820000Y-67040000D01*
X147980000Y-64380000D02*
X147980000Y-67040000D01*
X146710000Y-64380000D02*
X145380000Y-64380000D01*
%TO.C,P7*%
X170840000Y-67040000D02*
X188680000Y-67040000D01*
X170840000Y-64380000D02*
X170840000Y-67040000D01*
X168240000Y-64380000D02*
X168240000Y-65710000D01*
X188680000Y-64380000D02*
X188680000Y-67040000D01*
X169570000Y-64380000D02*
X168240000Y-64380000D01*
X170840000Y-64380000D02*
X188680000Y-64380000D01*
%TD*%
M02*
