M48
; DRILL file {KiCad 6.0.7-f9a2dced07~116~ubuntu20.04.1} date 2022年08月08日 10時18分29秒
; FORMAT={-:-/ absolute / inch / decimal}
; #@! TF.CreationDate,2022-08-08T10:18:29+09:00
; #@! TF.GenerationSoftware,Kicad,Pcbnew,6.0.7-f9a2dced07~116~ubuntu20.04.1
; #@! TF.FileFunction,MixedPlating,1,2
FMAT,2
INCH
; #@! TA.AperFunction,Plated,PTH,ViaDrill
T1C0.0118
; #@! TA.AperFunction,Plated,PTH,ViaDrill
T2C0.0157
; #@! TA.AperFunction,Plated,PTH,ComponentDrill
T3C0.0197
; #@! TA.AperFunction,Plated,PTH,ComponentDrill
T4C0.0300
; #@! TA.AperFunction,Plated,PTH,ComponentDrill
T5C0.0315
; #@! TA.AperFunction,Plated,PTH,ComponentDrill
T6C0.0354
; #@! TA.AperFunction,Plated,PTH,ComponentDrill
T7C0.0374
; #@! TA.AperFunction,Plated,PTH,ComponentDrill
T8C0.0394
; #@! TA.AperFunction,Plated,PTH,ComponentDrill
T9C0.0669
; #@! TA.AperFunction,Plated,PTH,ComponentDrill
T10C0.0709
; #@! TA.AperFunction,Plated,PTH,ComponentDrill
T11C0.1200
; #@! TA.AperFunction,NonPlated,NPTH,ComponentDrill
T12C0.0984
; #@! TA.AperFunction,NonPlated,NPTH,ComponentDrill
T13C0.1693
%
G90
G05
T1
X4.125Y-5.4
X4.225Y-5.45
X4.3263Y-5.5
X4.3288Y-2.3
X4.375Y-2.325
X4.4Y-2.35
X4.425Y-2.375
X4.45Y-2.4
X4.475Y-2.425
X4.5Y-2.45
X4.5Y-2.875
X4.525Y-2.85
X4.55Y-2.825
X4.575Y-2.8
X4.6Y-2.775
X4.625Y-2.75
X4.65Y-2.725
X4.65Y-5.4
X4.675Y-4.125
X4.675Y-5.45
X4.7Y-2.875
X4.7Y-4.15
X4.7Y-5.5
X4.725Y-2.85
X4.75Y-2.825
X4.75Y-7.785
X4.775Y-2.8
X4.775Y-7.76
X4.8Y-2.775
X4.8Y-7.735
X4.825Y-2.75
X4.825Y-7.71
X4.85Y-2.725
X4.85Y-7.685
X4.875Y-7.66
X4.875Y-7.785
X4.9Y-2.715
X4.9Y-3.4
X4.95Y-2.6851
X4.95Y-2.93
X5.0Y-2.24
X5.0Y-4.7
X5.1Y-2.25
X5.1Y-4.95
X5.1Y-5.325
X5.1Y-5.675
X5.1Y-6.025
X5.1Y-6.375
X5.1Y-6.725
X5.1Y-7.075
X5.1016Y-7.425
X5.116Y-2.45
X5.2Y-2.225
X5.216Y-2.425
X5.23Y-2.93
X5.23Y-3.2004
X5.2766Y-7.76
X5.3Y-2.2
X5.316Y-2.4
X5.35Y-4.575
X5.35Y-5.325
X5.3744Y-3.4
X5.375Y-4.6
X5.375Y-5.675
X5.4Y-2.175
X5.4Y-4.625
X5.4Y-6.025
X5.416Y-2.375
X5.425Y-4.65
X5.425Y-6.375
X5.45Y-4.675
X5.45Y-6.725
X5.4724Y-3.1985
X5.4724Y-3.3004
X5.475Y-4.55
X5.475Y-4.95
X5.5Y-2.15
X5.5Y-4.775
X5.5Y-7.075
X5.516Y-2.35
X5.55Y-4.8
X5.55Y-7.425
X5.575Y-3.15
X5.575Y-3.25
X5.6Y-2.125
X5.616Y-2.325
X5.675Y-7.735
X5.7Y-2.1
X5.7Y-4.825
X5.7Y-5.675
X5.7Y-6.025
X5.7Y-6.375
X5.7Y-6.725
X5.7Y-7.075
X5.7016Y-5.3266
X5.775Y-2.3
X5.8Y-2.075
X5.876Y-2.712
X5.89Y-3.15
X5.9Y-2.05
X5.975Y-4.85
X5.975Y-5.325
X5.976Y-4.55
X6.0Y-2.025
X6.0Y-2.425
X6.0Y-4.875
X6.0Y-5.675
X6.025Y-4.9
X6.025Y-6.025
X6.0516Y-7.71
X6.076Y-4.575
X6.1Y-2.0
X6.1Y-5.05
X6.175Y-6.93
X6.176Y-4.6
X6.275Y-5.0
X6.276Y-4.625
X6.29Y-6.93
X6.3Y-2.45
X6.376Y-4.65
X6.426Y-3.3
X6.4266Y-7.685
X6.455Y-2.712
X6.455Y-3.575
X6.475Y-4.675
X6.515Y-4.775
X6.676Y-4.8
X6.678Y-2.712
X6.725Y-4.925
X6.725Y-6.375
X6.75Y-4.225
X6.75Y-4.725
X6.75Y-4.95
X6.75Y-6.725
X6.775Y-4.975
X6.775Y-7.075
X6.8Y-5.025
X6.8008Y-7.66
X6.825Y-5.05
X6.875Y-4.825
X6.876Y-2.65
X6.9Y-4.575
X6.9Y-4.85
X6.925Y-4.6
X6.925Y-4.875
X6.95Y-2.65
X6.95Y-4.35
X6.95Y-4.625
X6.95Y-4.9
X6.975Y-4.325
X6.975Y-4.575
X6.975Y-4.65
X6.975Y-4.925
X7.0Y-4.675
X7.0Y-4.95
X7.025Y-4.7
X7.025Y-4.975
X7.025Y-7.05
X7.025Y-7.325
X7.05Y-4.75
X7.05Y-5.05
X7.075Y-4.6
X7.075Y-4.7748
X7.075Y-5.025
X7.125Y-3.75
X7.125Y-4.35
X7.125Y-4.75
X7.126Y-2.4
X7.15Y-5.125
X7.15Y-6.25
X7.15Y-7.05
X7.175Y-4.625
X7.176Y-2.475
X7.225Y-4.325
X7.225Y-4.775
X7.2716Y-7.6
X7.276Y-4.65
X7.35Y-4.75
X7.35Y-5.0
X7.375Y-4.675
X7.375Y-7.55
X7.425Y-4.95
X7.425Y-7.325
X7.425Y-7.5
X7.475Y-4.7
X7.475Y-4.975
X7.475Y-6.925
X7.5Y-5.0
X7.5Y-6.4
X7.525Y-3.405
X7.525Y-5.025
X7.525Y-5.875
X7.53Y-4.87
X7.55Y-5.05
X7.55Y-5.35
X7.575Y-5.325
X7.575Y-7.2
X7.576Y-4.624
X7.6Y-5.45
X7.6Y-7.925
X7.625Y-5.3
X7.625Y-6.675
X7.775Y-7.0
X7.7756Y-7.7256
X7.8175Y-5.2425
X7.8175Y-5.6325
X7.8175Y-6.4825
X7.825Y-7.675
X7.85Y-5.275
X7.85Y-6.15
X7.875Y-5.975
X7.875Y-7.65
X7.925Y-7.5
X8.0Y-5.225
X8.0Y-7.525
X8.0215Y-5.3535
X8.1Y-5.275
X8.1Y-6.9
X8.125Y-5.4325
X8.15Y-5.2
X8.15Y-5.575
X8.15Y-6.275
X8.15Y-6.875
X8.175Y-7.925
X8.2Y-3.087
X8.2Y-4.95
X8.2Y-5.35
X8.2Y-5.725
X8.2Y-6.375
X8.225Y-2.425
X8.225Y-4.6
X8.225Y-5.6325
X8.225Y-5.8
X8.225Y-6.1575
X8.225Y-6.325
X8.225Y-6.6825
X8.225Y-6.85
X8.225Y-7.225
X8.225Y-7.45
X8.25Y-2.4
X8.25Y-4.575
X8.2575Y-5.9575
X8.275Y-2.837
X8.275Y-5.05
X8.275Y-5.35
X8.275Y-7.6
X8.275Y-7.65
X8.3Y-2.887
X8.3Y-5.025
X8.3Y-6.15
X8.325Y-2.937
X8.325Y-5.0
X8.325Y-6.675
X8.35Y-2.987
X8.35Y-4.975
X8.375Y-7.6
X8.4Y-5.3
X8.5Y-5.325
X8.525Y-2.787
X8.525Y-5.0
X8.55Y-2.737
X8.55Y-4.975
X8.575Y-2.687
X8.575Y-4.95
X8.575Y-7.2
X8.575Y-7.7
X8.6Y-2.637
X8.6Y-4.675
X8.6Y-7.0075
X8.6Y-7.4
X8.6744Y-7.7256
X8.675Y-2.475
X8.675Y-4.625
X8.7Y-4.675
X8.725Y-2.45
X8.725Y-4.925
X8.775Y-3.037
X8.775Y-5.0
X8.775Y-7.0
X8.775Y-7.4
X8.8Y-4.95
X8.8Y-5.9571
X8.8Y-6.375
X8.8Y-6.55
X8.825Y-6.0
X8.825Y-6.2575
X8.825Y-6.7825
X8.875Y-6.25
X8.875Y-6.5
X8.875Y-7.3075
X8.925Y-4.975
X8.925Y-6.45
X9.15Y-5.75
X9.15Y-6.0
X9.15Y-6.25
X9.15Y-6.5
X9.15Y-6.55
X9.15Y-6.95
X9.15Y-7.05
X9.15Y-7.525
X9.55Y-4.575
X9.55Y-5.525
X9.55Y-6.85
X9.55Y-7.125
X9.575Y-6.325
X9.575Y-7.025
X9.6Y-4.925
X9.6Y-5.625
X9.6Y-5.8
X9.6Y-6.925
X9.65Y-4.625
X9.65Y-5.9
X9.65Y-6.2
X9.65Y-6.625
X9.65Y-6.825
X9.65Y-7.2
X9.675Y-5.7
X9.675Y-6.5313
X9.725Y-7.225
X9.725Y-7.45
X9.75Y-4.725
X9.75Y-4.8266
X10.1Y-4.6
X10.1Y-6.1156
X10.15Y-4.925
T2
X4.3263Y-4.5216
X4.3263Y-4.64
X4.4Y-4.2
X4.625Y-4.075
X4.625Y-4.2
X4.65Y-4.1
X5.103Y-3.524
X5.122Y-3.751
X5.124Y-3.701
X5.125Y-3.55
X5.14Y-3.578
X5.14Y-3.606
X5.14Y-3.633
X5.156Y-3.7
X5.156Y-3.751
X5.16Y-3.55
X5.187Y-3.524
X5.275Y-4.275
X5.336Y-3.755
X6.075Y-2.35
X6.776Y-2.375
X6.8Y-7.6
X6.825Y-7.55
X6.85Y-2.712
X7.076Y-3.265
X7.325Y-2.225
X7.326Y-3.487
X7.95Y-2.25
X7.95Y-3.387
X7.95Y-3.987
X7.95Y-4.275
X7.975Y-2.2
X7.975Y-3.487
X7.975Y-3.937
X7.975Y-4.25
X8.0Y-2.175
X8.0Y-3.537
X8.025Y-2.15
X8.025Y-3.587
X8.05Y-2.125
X8.05Y-3.637
X8.075Y-2.1
X8.075Y-3.687
X8.1Y-2.075
X8.1Y-3.737
X8.125Y-2.05
X8.125Y-3.787
X8.15Y-2.025
X8.15Y-3.825
X8.175Y-2.0
X8.175Y-3.85
X8.2Y-3.775
X8.2Y-4.225
X8.225Y-3.8
X8.225Y-4.2
X8.25Y-3.825
X8.25Y-4.175
X8.275Y-3.85
X8.275Y-4.15
X8.375Y-3.85
X8.375Y-4.15
X8.4Y-3.825
X8.4Y-4.175
X8.425Y-3.8
X8.425Y-4.2
X8.45Y-3.775
X8.45Y-4.225
X8.625Y-3.5
X8.625Y-4.625
X8.75Y-3.95
X8.75Y-4.25
X8.775Y-2.4
X8.775Y-3.975
X8.775Y-4.275
X8.8Y-2.2
X8.8Y-3.187
X8.825Y-2.6
X8.825Y-3.287
X8.85Y-3.0
X8.85Y-3.3414
X8.875Y-2.75
X8.875Y-3.4414
X9.175Y-2.6
X9.175Y-3.2414
X9.7Y-4.87
X9.7Y-6.016
X9.7016Y-2.75
X9.725Y-4.75
X9.725Y-5.82
X9.975Y-2.35
X10.0Y-3.475
X10.0Y-3.95
X10.075Y-2.4
X10.075Y-3.475
X10.075Y-3.975
X10.15Y-2.375
T3
X4.95Y-3.0126
X4.95Y-3.0874
T4
X3.7131Y-2.643
X3.91Y-2.5091
X3.9263Y-4.9
X3.9263Y-5.7
X4.0263Y-4.9
X4.0263Y-5.7
X4.1069Y-2.643
X4.1263Y-4.9
X4.1263Y-5.7
X4.2263Y-4.9
X4.2263Y-5.7
X4.3263Y-4.9
X4.3263Y-5.7
X4.4179Y-5.7
X4.4263Y-4.9
X6.4Y-7.225
X6.4Y-7.325
X6.4Y-7.425
X6.6Y-7.225
X6.6Y-7.325
X6.6Y-7.425
X6.95Y-7.225
X6.95Y-7.325
X6.95Y-7.425
X7.15Y-7.225
X7.15Y-7.325
X7.15Y-7.425
X9.05Y-5.625
X9.05Y-5.875
X9.05Y-6.125
X9.05Y-6.375
X9.05Y-6.625
X9.05Y-6.875
X9.05Y-7.125
X9.05Y-7.375
X9.15Y-5.625
X9.15Y-5.875
X9.15Y-6.125
X9.15Y-6.375
X9.15Y-6.625
X9.15Y-6.875
X9.15Y-7.125
X9.15Y-7.375
X9.25Y-5.625
X9.25Y-5.875
X9.25Y-6.125
X9.25Y-6.375
X9.25Y-6.625
X9.25Y-6.875
X9.25Y-7.125
X9.25Y-7.375
T5
X3.85Y-3.4
X4.25Y-3.4
X4.25Y-3.65
X4.25Y-3.7287
X5.0744Y-3.0004
X5.0744Y-3.1004
X5.0744Y-3.2004
X5.0744Y-3.3004
X5.1758Y-2.85
X5.2742Y-2.85
X5.3744Y-3.0004
X5.3744Y-3.1004
X5.3744Y-3.2004
X5.3744Y-3.3004
X5.378Y-3.975
X5.378Y-4.275
X5.7514Y-3.0004
X5.7514Y-3.1004
X5.7514Y-3.2004
X5.7514Y-3.3004
X5.8508Y-2.852
X5.9492Y-2.852
X5.95Y-7.5
X6.0514Y-3.0004
X6.0514Y-3.1004
X6.0514Y-3.2004
X6.0514Y-3.3004
X6.25Y-7.5
X6.255Y-2.9
X6.255Y-3.2
X6.255Y-3.3
X6.255Y-3.6
X6.27Y-4.725
X6.57Y-4.725
X6.74Y-3.405
X6.75Y-3.575
X6.75Y-3.755
X6.85Y-3.925
X6.85Y-4.225
X7.04Y-3.405
X7.05Y-3.575
X7.05Y-3.755
X7.05Y-5.55
X7.05Y-5.8
X7.05Y-6.025
X7.05Y-6.25
X7.35Y-4.87
X7.35Y-5.55
X7.35Y-5.8
X7.35Y-6.025
X7.35Y-6.25
X7.65Y-4.87
X7.6965Y-6.4825
X7.6965Y-6.5825
X7.6965Y-6.6825
X7.6965Y-6.7825
X7.6965Y-7.0075
X7.6965Y-7.1075
X7.6965Y-7.2075
X7.6965Y-7.3075
X7.7215Y-5.4325
X7.7215Y-5.5325
X7.7215Y-5.6325
X7.7215Y-5.7325
X7.7215Y-5.9575
X7.7215Y-6.0575
X7.7215Y-6.1575
X7.7215Y-6.2575
X7.7994Y-5.125
X7.8994Y-5.125
X7.9744Y-7.825
X7.9965Y-6.4825
X7.9965Y-6.5825
X7.9965Y-6.6825
X7.9965Y-6.7825
X7.9965Y-7.0075
X7.9965Y-7.1075
X7.9965Y-7.2075
X7.9965Y-7.3075
X7.9994Y-5.125
X8.0215Y-5.4325
X8.0215Y-5.5325
X8.0215Y-5.6325
X8.0215Y-5.7325
X8.0215Y-5.9575
X8.0215Y-6.0575
X8.0215Y-6.1575
X8.0215Y-6.2575
X8.0744Y-7.825
X8.0994Y-5.125
X8.1744Y-7.825
X8.1994Y-5.125
X8.2744Y-7.825
X8.2994Y-5.125
X8.3744Y-7.825
X8.3965Y-5.4325
X8.3965Y-5.5325
X8.3965Y-5.6325
X8.3965Y-5.7325
X8.3965Y-5.9575
X8.3965Y-6.0575
X8.3965Y-6.1575
X8.3965Y-6.2575
X8.3965Y-6.4825
X8.3965Y-6.5825
X8.3965Y-6.6825
X8.3965Y-6.7825
X8.3965Y-7.0075
X8.3965Y-7.1075
X8.3965Y-7.2075
X8.3965Y-7.3075
X8.3994Y-5.125
X8.4744Y-7.825
X8.4994Y-5.125
X8.5744Y-7.825
X8.5994Y-5.125
X8.6744Y-7.825
X8.6965Y-5.4325
X8.6965Y-5.5325
X8.6965Y-5.6325
X8.6965Y-5.7325
X8.6965Y-5.9575
X8.6965Y-6.0575
X8.6965Y-6.1575
X8.6965Y-6.2575
X8.6965Y-6.4825
X8.6965Y-6.5825
X8.6965Y-6.6825
X8.6965Y-6.7825
X8.6965Y-7.0075
X8.6965Y-7.1075
X8.6965Y-7.2075
X8.6965Y-7.3075
X8.7744Y-7.825
T6
X5.566Y-2.85
X6.1002Y-7.2
X6.2002Y-7.2
X6.9248Y-6.9
X6.925Y-6.575
X7.0248Y-6.9
X7.025Y-6.575
X10.075Y-3.0
X10.075Y-3.4
X10.075Y-3.6
T7
X5.0016Y-5.0707
X5.0016Y-5.4207
X5.0016Y-5.7707
X5.0016Y-6.1207
X5.0016Y-6.4707
X5.0016Y-6.8207
X5.0016Y-7.1707
X5.0031Y-7.525
X5.1Y-5.0707
X5.1Y-5.4207
X5.1Y-5.7707
X5.1Y-6.1207
X5.1Y-6.4707
X5.1Y-6.8207
X5.1Y-7.1707
X5.1016Y-7.525
X5.1984Y-5.0707
X5.1984Y-5.4207
X5.1984Y-5.7707
X5.1984Y-6.1207
X5.1984Y-6.4707
X5.1984Y-6.8207
X5.1984Y-7.1707
X5.2Y-7.525
X5.6016Y-5.0707
X5.6016Y-5.7707
X5.6016Y-6.1207
X5.6016Y-6.4707
X5.6016Y-6.8207
X5.6016Y-7.1707
X5.6031Y-5.4207
X5.7Y-5.0707
X5.7Y-5.7707
X5.7Y-6.1207
X5.7Y-6.4707
X5.7Y-6.8207
X5.7Y-7.1707
X5.7016Y-5.4207
X5.7984Y-5.0707
X5.7984Y-5.7707
X5.7984Y-6.1207
X5.7984Y-6.4707
X5.7984Y-6.8207
X5.7984Y-7.1707
X5.8Y-5.4207
X6.3124Y-5.0707
X6.3124Y-5.4207
X6.3124Y-5.7707
X6.3124Y-6.1207
X6.3124Y-6.4707
X6.3124Y-6.8207
X6.4108Y-5.0707
X6.4108Y-5.4207
X6.4108Y-5.7707
X6.4108Y-6.1207
X6.4108Y-6.4707
X6.4108Y-6.8207
X6.5092Y-5.0707
X6.5092Y-5.4207
X6.5092Y-5.7707
X6.5092Y-6.1207
X6.5092Y-6.4707
X6.5092Y-6.8207
X6.6076Y-5.0707
X6.6076Y-5.4207
X6.6076Y-5.7707
X6.6076Y-6.1207
X6.6076Y-6.4707
X6.6076Y-6.8207
X7.2716Y-7.9907
X7.37Y-7.9907
X7.4684Y-7.9907
X9.9207Y-4.7281
X9.9207Y-4.8266
X9.9207Y-4.925
X9.9207Y-5.0234
X9.9207Y-5.1219
X9.9207Y-6.5313
X9.9207Y-6.6297
X9.9207Y-6.7281
X9.9207Y-6.8266
X9.9207Y-6.925
X9.9207Y-7.0234
X9.9207Y-7.1219
X9.9207Y-7.2203
X9.9207Y-7.3187
X9.925Y-5.525
X9.925Y-5.6234
X9.925Y-5.7219
X9.925Y-5.8203
X9.925Y-5.9187
X9.925Y-6.0171
X9.925Y-6.1156
T8
X3.74Y-4.5216
X3.74Y-4.7184
X3.8016Y-6.15
X3.8016Y-6.5
X3.8016Y-6.85
X3.8016Y-7.2
X3.8016Y-7.55
X3.9Y-6.15
X3.9Y-6.5
X3.9Y-6.85
X3.9Y-7.2
X3.9Y-7.55
X4.0945Y-2.0866
X4.1929Y-2.2835
X4.2913Y-2.0866
X4.3016Y-6.15
X4.3016Y-6.5
X4.3016Y-6.85
X4.3016Y-7.2
X4.3016Y-7.55
X4.4Y-6.15
X4.4Y-6.5
X4.4Y-6.85
X4.4Y-7.2
X4.4Y-7.55
X4.4516Y-8.0
X4.55Y-8.0
X4.716Y-2.587
X4.8Y-1.849
X4.816Y-2.587
X4.8758Y-7.9957
X4.9Y-1.849
X4.916Y-2.587
X4.9742Y-7.9957
X5.0Y-1.849
X5.016Y-2.587
X5.076Y-4.487
X5.1Y-1.849
X5.116Y-2.587
X5.176Y-4.487
X5.2Y-1.849
X5.216Y-2.587
X5.276Y-4.487
X5.2766Y-8.0
X5.3Y-1.849
X5.316Y-2.587
X5.375Y-8.0
X5.376Y-4.487
X5.4Y-1.849
X5.416Y-2.587
X5.476Y-4.487
X5.5Y-1.849
X5.516Y-2.587
X5.576Y-4.487
X5.6Y-1.849
X5.616Y-2.587
X5.6758Y-7.9957
X5.676Y-4.487
X5.7Y-1.849
X5.7742Y-7.9957
X5.776Y-2.587
X5.776Y-4.487
X5.8Y-1.849
X5.876Y-2.587
X5.9Y-1.849
X5.976Y-2.587
X5.976Y-4.487
X6.0Y-1.849
X6.0516Y-8.0
X6.076Y-2.587
X6.076Y-4.487
X6.1Y-1.849
X6.15Y-8.0
X6.176Y-2.587
X6.176Y-4.487
X6.2Y-1.849
X6.276Y-2.587
X6.276Y-4.487
X6.3Y-1.849
X6.376Y-2.587
X6.376Y-4.487
X6.4266Y-8.0
X6.476Y-2.587
X6.476Y-4.487
X6.525Y-8.0
X6.576Y-4.487
X6.676Y-2.587
X6.676Y-4.487
X6.776Y-2.587
X6.8008Y-7.9957
X6.876Y-2.587
X6.876Y-4.487
X6.8992Y-7.9957
X6.976Y-2.587
X6.976Y-4.487
X7.076Y-2.587
X7.076Y-4.487
X7.176Y-2.587
X7.176Y-4.487
X7.276Y-2.587
X7.276Y-4.487
X7.376Y-2.587
X7.376Y-4.487
X7.476Y-4.487
X7.576Y-4.487
X7.676Y-2.587
X7.676Y-2.687
X7.676Y-2.787
X7.676Y-2.887
X7.676Y-2.987
X7.676Y-3.087
X7.676Y-3.187
X7.676Y-3.287
X7.676Y-3.387
X7.676Y-3.487
X7.676Y-3.587
X7.676Y-3.687
X7.676Y-3.787
X7.676Y-3.887
X7.676Y-3.987
X7.676Y-4.087
X7.676Y-4.187
X7.676Y-4.287
X7.776Y-2.587
X7.776Y-2.687
X7.776Y-2.787
X7.776Y-2.887
X7.776Y-2.987
X7.776Y-3.087
X7.776Y-3.187
X7.776Y-3.287
X7.776Y-3.387
X7.776Y-3.487
X7.776Y-3.587
X7.776Y-3.687
X7.776Y-3.787
X7.776Y-3.887
X7.776Y-3.987
X7.776Y-4.087
X7.776Y-4.187
X7.776Y-4.287
X8.9016Y-2.6
X9.0984Y-2.6
X9.3016Y-2.2
X9.3016Y-2.6
X9.3016Y-3.0
X9.3016Y-3.4118
X9.4Y-3.4118
X9.4984Y-2.2
X9.4984Y-2.6
X9.4984Y-3.0
X9.4984Y-3.4118
X9.7016Y-2.6
X9.8984Y-2.6
T9
X3.75Y-3.5941
X3.75Y-3.75
T11
X4.526Y-4.487
X4.576Y-2.587
X6.576Y-3.187
X6.576Y-4.287
X7.526Y-2.587
X7.776Y-4.487
T12
X4.5047Y-1.849
X4.5047Y-4.0144
X8.1661Y-1.85
X8.1661Y-4.0144
T13
X3.7862Y-1.9748
X3.7862Y-8.0748
X9.9862Y-1.9748
X9.9862Y-8.0748
T10
G00X9.2268Y-3.6815
M15
G01X9.2268Y-3.6933
M16
G05
G00X9.5732Y-3.6815
M15
G01X9.5732Y-3.6933
M16
G05
T0
M30
